<svg id="visual" viewBox="0 0 960 540" width="960" height="540" xmlns="http://www.w3.org/2000/svg" xmlns:xlink="http://www.w3.org/1999/xlink" version="1.1"><g stroke-width="1" stroke-linejoin="bevel"><path d="M487 224L485 321L596 319Z" fill="#2563eb" stroke="#2563eb"></path><path d="M596 319L597 220L487 224Z" fill="#83a6f5" stroke="#83a6f5"></path><path d="M367 312L476 436L485 321Z" fill="#8eaef5" stroke="#8eaef5"></path><path d="M485 321L476 436L596 319Z" fill="#99b6f5" stroke="#99b6f5"></path><path d="M597 220L488 105L487 224Z" fill="#799ef4" stroke="#799ef4"></path><path d="M487 224L367 312L485 321Z" fill="#4d7cf0" stroke="#4d7cf0"></path><path d="M355 227L367 312L487 224Z" fill="#8eaef5" stroke="#8eaef5"></path><path d="M596 319L710 217L597 220Z" fill="#4174ef" stroke="#4174ef"></path><path d="M597 220L589 97L488 105Z" fill="#6e95f4" stroke="#6e95f4"></path><path d="M729 333L710 217L596 319Z" fill="#346ced" stroke="#346ced"></path><path d="M476 436L607 443L596 319Z" fill="#346ced" stroke="#346ced"></path><path d="M710 217L589 97L597 220Z" fill="#4d7cf0" stroke="#4d7cf0"></path><path d="M363 117L355 227L487 224Z" fill="#8eaef5" stroke="#8eaef5"></path><path d="M607 443L729 333L596 319Z" fill="#2563eb" stroke="#2563eb"></path><path d="M488 105L363 117L487 224Z" fill="#8eaef5" stroke="#8eaef5"></path><path d="M229 330L351 437L367 312Z" fill="#346ced" stroke="#346ced"></path><path d="M367 312L351 437L476 436Z" fill="#4d7cf0" stroke="#4d7cf0"></path><path d="M476 436L480 540L607 443Z" fill="#8eaef5" stroke="#8eaef5"></path><path d="M607 443L724 443L729 333Z" fill="#6e95f4" stroke="#6e95f4"></path><path d="M838 221L726 106L710 217Z" fill="#6e95f4" stroke="#6e95f4"></path><path d="M710 217L726 106L589 97Z" fill="#2563eb" stroke="#2563eb"></path><path d="M358 540L480 540L476 436Z" fill="#99b6f5" stroke="#99b6f5"></path><path d="M607 443L609 540L724 443Z" fill="#4d7cf0" stroke="#4d7cf0"></path><path d="M480 540L609 540L607 443Z" fill="#799ef4" stroke="#799ef4"></path><path d="M589 97L473 0L488 105Z" fill="#8eaef5" stroke="#8eaef5"></path><path d="M488 105L473 0L363 117Z" fill="#6e95f4" stroke="#6e95f4"></path><path d="M611 0L473 0L589 97Z" fill="#83a6f5" stroke="#83a6f5"></path><path d="M726 106L611 0L589 97Z" fill="#638df3" stroke="#638df3"></path><path d="M363 117L249 217L355 227Z" fill="#4d7cf0" stroke="#4d7cf0"></path><path d="M355 227L249 217L367 312Z" fill="#6e95f4" stroke="#6e95f4"></path><path d="M245 97L249 217L363 117Z" fill="#99b6f5" stroke="#99b6f5"></path><path d="M729 333L838 221L710 217Z" fill="#6e95f4" stroke="#6e95f4"></path><path d="M842 323L838 221L729 333Z" fill="#6e95f4" stroke="#6e95f4"></path><path d="M844 428L842 323L729 333Z" fill="#638df3" stroke="#638df3"></path><path d="M249 217L229 330L367 312Z" fill="#638df3" stroke="#638df3"></path><path d="M351 437L358 540L476 436Z" fill="#799ef4" stroke="#799ef4"></path><path d="M241 439L358 540L351 437Z" fill="#4d7cf0" stroke="#4d7cf0"></path><path d="M726 106L717 0L611 0Z" fill="#99b6f5" stroke="#99b6f5"></path><path d="M830 0L717 0L726 106Z" fill="#2563eb" stroke="#2563eb"></path><path d="M609 540L729 540L724 443Z" fill="#799ef4" stroke="#799ef4"></path><path d="M724 443L844 428L729 333Z" fill="#83a6f5" stroke="#83a6f5"></path><path d="M473 0L353 0L363 117Z" fill="#4d7cf0" stroke="#4d7cf0"></path><path d="M838 540L844 428L724 443Z" fill="#4174ef" stroke="#4174ef"></path><path d="M229 330L241 439L351 437Z" fill="#8eaef5" stroke="#8eaef5"></path><path d="M353 0L245 97L363 117Z" fill="#5885f2" stroke="#5885f2"></path><path d="M249 217L123 322L229 330Z" fill="#799ef4" stroke="#799ef4"></path><path d="M960 113L840 104L838 221Z" fill="#2563eb" stroke="#2563eb"></path><path d="M838 221L840 104L726 106Z" fill="#2563eb" stroke="#2563eb"></path><path d="M960 216L838 221L842 323Z" fill="#4d7cf0" stroke="#4d7cf0"></path><path d="M840 104L830 0L726 106Z" fill="#6e95f4" stroke="#6e95f4"></path><path d="M729 540L838 540L724 443Z" fill="#99b6f5" stroke="#99b6f5"></path><path d="M116 431L230 540L241 439Z" fill="#346ced" stroke="#346ced"></path><path d="M241 439L230 540L358 540Z" fill="#6e95f4" stroke="#6e95f4"></path><path d="M353 0L228 0L245 97Z" fill="#2563eb" stroke="#2563eb"></path><path d="M110 209L123 322L249 217Z" fill="#4174ef" stroke="#4174ef"></path><path d="M110 209L249 217L245 97Z" fill="#99b6f5" stroke="#99b6f5"></path><path d="M229 330L116 431L241 439Z" fill="#4174ef" stroke="#4174ef"></path><path d="M960 335L960 216L842 323Z" fill="#83a6f5" stroke="#83a6f5"></path><path d="M840 104L960 0L830 0Z" fill="#638df3" stroke="#638df3"></path><path d="M960 335L842 323L844 428Z" fill="#6e95f4" stroke="#6e95f4"></path><path d="M960 424L960 335L844 428Z" fill="#2563eb" stroke="#2563eb"></path><path d="M108 100L110 209L245 97Z" fill="#6e95f4" stroke="#6e95f4"></path><path d="M960 540L960 424L844 428Z" fill="#799ef4" stroke="#799ef4"></path><path d="M960 216L960 113L838 221Z" fill="#5885f2" stroke="#5885f2"></path><path d="M0 316L116 431L123 322Z" fill="#4174ef" stroke="#4174ef"></path><path d="M123 322L116 431L229 330Z" fill="#5885f2" stroke="#5885f2"></path><path d="M228 0L108 100L245 97Z" fill="#4d7cf0" stroke="#4d7cf0"></path><path d="M838 540L960 540L844 428Z" fill="#2563eb" stroke="#2563eb"></path><path d="M960 113L960 0L840 104Z" fill="#5885f2" stroke="#5885f2"></path><path d="M0 431L112 540L116 431Z" fill="#799ef4" stroke="#799ef4"></path><path d="M116 431L112 540L230 540Z" fill="#4d7cf0" stroke="#4d7cf0"></path><path d="M0 316L123 322L110 209Z" fill="#83a6f5" stroke="#83a6f5"></path><path d="M228 0L114 0L108 100Z" fill="#5885f2" stroke="#5885f2"></path><path d="M0 226L0 316L110 209Z" fill="#346ced" stroke="#346ced"></path><path d="M0 226L110 209L0 112Z" fill="#83a6f5" stroke="#83a6f5"></path><path d="M0 112L110 209L108 100Z" fill="#2563eb" stroke="#2563eb"></path><path d="M0 316L0 431L116 431Z" fill="#4d7cf0" stroke="#4d7cf0"></path><path d="M0 0L0 112L108 100Z" fill="#6e95f4" stroke="#6e95f4"></path><path d="M0 431L0 540L112 540Z" fill="#638df3" stroke="#638df3"></path><path d="M114 0L0 0L108 100Z" fill="#8eaef5" stroke="#8eaef5"></path></g></svg>