<svg id="visual" viewBox="0 0 675 900" width="675" height="900" xmlns="http://www.w3.org/2000/svg" xmlns:xlink="http://www.w3.org/1999/xlink" version="1.1"><g stroke-width="1" stroke-linejoin="bevel"><path d="M315.5 461L344.5 403.7L291 430Z" fill="#112e42" stroke="#112e42"></path><path d="M416 476L400 406.7L344.5 403.7Z" fill="#277297" stroke="#277297"></path><path d="M284 529.3L311.5 509.3L315.5 461Z" fill="#297ea6" stroke="#297ea6"></path><path d="M315.5 461L416 476L344.5 403.7Z" fill="#15384f" stroke="#15384f"></path><path d="M355.5 321.4L256 361.7L344.5 403.7Z" fill="#00101c" stroke="#00101c"></path><path d="M344.5 403.7L256 361.7L291 430Z" fill="#297ea6" stroke="#297ea6"></path><path d="M214.5 470L284 529.3L315.5 461Z" fill="#15384f" stroke="#15384f"></path><path d="M386 523.3L416 476L315.5 461Z" fill="#081a28" stroke="#081a28"></path><path d="M214.5 470L315.5 461L291 430Z" fill="#112e42" stroke="#112e42"></path><path d="M311.5 509.3L386 523.3L315.5 461Z" fill="#297ea6" stroke="#297ea6"></path><path d="M394 331.4L355.5 321.4L344.5 403.7Z" fill="#297ea6" stroke="#297ea6"></path><path d="M345.5 573.6L386 523.3L311.5 509.3Z" fill="#1d4e6b" stroke="#1d4e6b"></path><path d="M214.5 366.7L214.5 470L291 430Z" fill="#246688" stroke="#246688"></path><path d="M476.5 329.4L394 331.4L400 406.7Z" fill="#00101c" stroke="#00101c"></path><path d="M400 406.7L394 331.4L344.5 403.7Z" fill="#19435d" stroke="#19435d"></path><path d="M416 476L448.5 424L400 406.7Z" fill="#00101c" stroke="#00101c"></path><path d="M197.5 333.4L214.5 366.7L256 361.7Z" fill="#297ea6" stroke="#297ea6"></path><path d="M256 361.7L214.5 366.7L291 430Z" fill="#1d4e6b" stroke="#1d4e6b"></path><path d="M355.5 321.4L252 308.4L256 361.7Z" fill="#246688" stroke="#246688"></path><path d="M284 529.3L345.5 573.6L311.5 509.3Z" fill="#00101c" stroke="#00101c"></path><path d="M252 308.4L197.5 333.4L256 361.7Z" fill="#0c2435" stroke="#0c2435"></path><path d="M214.5 366.7L156 437L214.5 470Z" fill="#297ea6" stroke="#297ea6"></path><path d="M156 437L193.5 523.3L214.5 470Z" fill="#277297" stroke="#277297"></path><path d="M214.5 470L193.5 523.3L284 529.3Z" fill="#00101c" stroke="#00101c"></path><path d="M284 529.3L278 601.6L345.5 573.6Z" fill="#0c2435" stroke="#0c2435"></path><path d="M123 364.7L156 437L214.5 366.7Z" fill="#19435d" stroke="#19435d"></path><path d="M556 453L488.5 385.7L448.5 424Z" fill="#0c2435" stroke="#0c2435"></path><path d="M448.5 424L488.5 385.7L400 406.7Z" fill="#112e42" stroke="#112e42"></path><path d="M484.5 504.3L448.5 424L416 476Z" fill="#0c2435" stroke="#0c2435"></path><path d="M193.5 523.3L217.5 564.6L284 529.3Z" fill="#1d4e6b" stroke="#1d4e6b"></path><path d="M458.5 555.6L416 476L386 523.3Z" fill="#15384f" stroke="#15384f"></path><path d="M458.5 555.6L484.5 504.3L416 476Z" fill="#277297" stroke="#277297"></path><path d="M310.5 239.1L259 263.1L252 308.4Z" fill="#112e42" stroke="#112e42"></path><path d="M252 308.4L179.5 237.1L197.5 333.4Z" fill="#00101c" stroke="#00101c"></path><path d="M310.5 239.1L252 308.4L355.5 321.4Z" fill="#00101c" stroke="#00101c"></path><path d="M217.5 564.6L278 601.6L284 529.3Z" fill="#00101c" stroke="#00101c"></path><path d="M488.5 385.7L476.5 329.4L400 406.7Z" fill="#1d4e6b" stroke="#1d4e6b"></path><path d="M399 251.1L310.5 239.1L355.5 321.4Z" fill="#112e42" stroke="#112e42"></path><path d="M399 602.6L386 523.3L345.5 573.6Z" fill="#246688" stroke="#246688"></path><path d="M399 602.6L458.5 555.6L386 523.3Z" fill="#0c2435" stroke="#0c2435"></path><path d="M356.5 628.9L399 602.6L345.5 573.6Z" fill="#246688" stroke="#246688"></path><path d="M399 251.1L355.5 321.4L394 331.4Z" fill="#112e42" stroke="#112e42"></path><path d="M476.5 329.4L399 251.1L394 331.4Z" fill="#0c2435" stroke="#0c2435"></path><path d="M278 601.6L356.5 628.9L345.5 573.6Z" fill="#277297" stroke="#277297"></path><path d="M119 294.4L123 364.7L197.5 333.4Z" fill="#246688" stroke="#246688"></path><path d="M197.5 333.4L123 364.7L214.5 366.7Z" fill="#0c2435" stroke="#0c2435"></path><path d="M156 437L116 540.3L193.5 523.3Z" fill="#297ea6" stroke="#297ea6"></path><path d="M488.5 385.7L544 383.7L476.5 329.4Z" fill="#297ea6" stroke="#297ea6"></path><path d="M476.5 329.4L478.5 234.1L399 251.1Z" fill="#112e42" stroke="#112e42"></path><path d="M556 453L544 383.7L488.5 385.7Z" fill="#1d4e6b" stroke="#1d4e6b"></path><path d="M554 513.3L556 453L484.5 504.3Z" fill="#0c2435" stroke="#0c2435"></path><path d="M484.5 504.3L556 453L448.5 424Z" fill="#19435d" stroke="#19435d"></path><path d="M123 364.7L89.5 425L156 437Z" fill="#277297" stroke="#277297"></path><path d="M193.5 523.3L123 601.6L217.5 564.6Z" fill="#297ea6" stroke="#297ea6"></path><path d="M192.5 637.9L267 657.9L278 601.6Z" fill="#205a7a" stroke="#205a7a"></path><path d="M278 601.6L267 657.9L356.5 628.9Z" fill="#246688" stroke="#246688"></path><path d="M192.5 637.9L278 601.6L217.5 564.6Z" fill="#0c2435" stroke="#0c2435"></path><path d="M89.5 425L116 540.3L156 437Z" fill="#19435d" stroke="#19435d"></path><path d="M310.5 239.1L283 195.9L259 263.1Z" fill="#15384f" stroke="#15384f"></path><path d="M179.5 237.1L148 266.1L197.5 333.4Z" fill="#081a28" stroke="#081a28"></path><path d="M358.5 170.9L283 195.9L310.5 239.1Z" fill="#081a28" stroke="#081a28"></path><path d="M283 195.9L224.5 213.9L259 263.1Z" fill="#205a7a" stroke="#205a7a"></path><path d="M399 602.6L424 646.9L458.5 555.6Z" fill="#1d4e6b" stroke="#1d4e6b"></path><path d="M533 569.6L554 513.3L484.5 504.3Z" fill="#0c2435" stroke="#0c2435"></path><path d="M356.5 628.9L424 646.9L399 602.6Z" fill="#0c2435" stroke="#0c2435"></path><path d="M427 694.1L424 646.9L356.5 628.9Z" fill="#081a28" stroke="#081a28"></path><path d="M179.5 237.1L252 308.4L259 263.1Z" fill="#112e42" stroke="#112e42"></path><path d="M123 364.7L42.5 359.7L89.5 425Z" fill="#19435d" stroke="#19435d"></path><path d="M224.5 213.9L179.5 237.1L259 263.1Z" fill="#15384f" stroke="#15384f"></path><path d="M533 569.6L484.5 504.3L458.5 555.6Z" fill="#297ea6" stroke="#297ea6"></path><path d="M148 266.1L119 294.4L197.5 333.4Z" fill="#0c2435" stroke="#0c2435"></path><path d="M123 601.6L192.5 637.9L217.5 564.6Z" fill="#19435d" stroke="#19435d"></path><path d="M545 259.1L478.5 234.1L476.5 329.4Z" fill="#112e42" stroke="#112e42"></path><path d="M399 251.1L358.5 170.9L310.5 239.1Z" fill="#00101c" stroke="#00101c"></path><path d="M534 633.9L533 569.6L458.5 555.6Z" fill="#246688" stroke="#246688"></path><path d="M618.5 362.7L563 342.4L544 383.7Z" fill="#205a7a" stroke="#205a7a"></path><path d="M544 383.7L563 342.4L476.5 329.4Z" fill="#246688" stroke="#246688"></path><path d="M618.5 362.7L544 383.7L556 453Z" fill="#246688" stroke="#246688"></path><path d="M478.5 234.1L399 180.9L399 251.1Z" fill="#205a7a" stroke="#205a7a"></path><path d="M399 180.9L358.5 170.9L399 251.1Z" fill="#1d4e6b" stroke="#1d4e6b"></path><path d="M225.5 132.6L161 197.9L224.5 213.9Z" fill="#19435d" stroke="#19435d"></path><path d="M604.5 519.3L584.5 466L554 513.3Z" fill="#1d4e6b" stroke="#1d4e6b"></path><path d="M554 513.3L584.5 466L556 453Z" fill="#0c2435" stroke="#0c2435"></path><path d="M65.5 574.6L123 601.6L116 540.3Z" fill="#19435d" stroke="#19435d"></path><path d="M116 540.3L123 601.6L193.5 523.3Z" fill="#277297" stroke="#277297"></path><path d="M563 342.4L545 259.1L476.5 329.4Z" fill="#246688" stroke="#246688"></path><path d="M478.5 234.1L494.5 171.9L399 180.9Z" fill="#00101c" stroke="#00101c"></path><path d="M179.5 237.1L161 197.9L148 266.1Z" fill="#246688" stroke="#246688"></path><path d="M148 266.1L69.5 268.1L119 294.4Z" fill="#0c2435" stroke="#0c2435"></path><path d="M224.5 213.9L161 197.9L179.5 237.1Z" fill="#0c2435" stroke="#0c2435"></path><path d="M225.5 132.6L224.5 213.9L283 195.9Z" fill="#00101c" stroke="#00101c"></path><path d="M0 461L61.5 538.3L89.5 425Z" fill="#15384f" stroke="#15384f"></path><path d="M89.5 425L61.5 538.3L116 540.3Z" fill="#0c2435" stroke="#0c2435"></path><path d="M351.5 731.1L427 694.1L356.5 628.9Z" fill="#205a7a" stroke="#205a7a"></path><path d="M424 646.9L477.5 668.9L458.5 555.6Z" fill="#205a7a" stroke="#205a7a"></path><path d="M427 694.1L477.5 668.9L424 646.9Z" fill="#0c2435" stroke="#0c2435"></path><path d="M55.5 314.4L123 364.7L119 294.4Z" fill="#081a28" stroke="#081a28"></path><path d="M55.5 314.4L42.5 359.7L123 364.7Z" fill="#00101c" stroke="#00101c"></path><path d="M192.5 637.9L222.5 702.1L267 657.9Z" fill="#1d4e6b" stroke="#1d4e6b"></path><path d="M267 657.9L351.5 731.1L356.5 628.9Z" fill="#205a7a" stroke="#205a7a"></path><path d="M159 681.1L222.5 702.1L192.5 637.9Z" fill="#15384f" stroke="#15384f"></path><path d="M69.5 268.1L55.5 314.4L119 294.4Z" fill="#0c2435" stroke="#0c2435"></path><path d="M477.5 668.9L534 633.9L458.5 555.6Z" fill="#15384f" stroke="#15384f"></path><path d="M533 569.6L604.5 519.3L554 513.3Z" fill="#19435d" stroke="#19435d"></path><path d="M589.5 601.6L604.5 519.3L533 569.6Z" fill="#0c2435" stroke="#0c2435"></path><path d="M584.5 466L618.5 362.7L556 453Z" fill="#1d4e6b" stroke="#1d4e6b"></path><path d="M563 342.4L612.5 320.4L545 259.1Z" fill="#1d4e6b" stroke="#1d4e6b"></path><path d="M61.5 538.3L65.5 574.6L116 540.3Z" fill="#00101c" stroke="#00101c"></path><path d="M123 601.6L117 642.9L192.5 637.9Z" fill="#00101c" stroke="#00101c"></path><path d="M65.5 574.6L117 642.9L123 601.6Z" fill="#081a28" stroke="#081a28"></path><path d="M340.5 125.6L283 195.9L358.5 170.9Z" fill="#00101c" stroke="#00101c"></path><path d="M340.5 125.6L270 135.6L283 195.9Z" fill="#246688" stroke="#246688"></path><path d="M117 642.9L159 681.1L192.5 637.9Z" fill="#277297" stroke="#277297"></path><path d="M66.5 198.9L69.5 268.1L148 266.1Z" fill="#205a7a" stroke="#205a7a"></path><path d="M675 459L618.5 362.7L584.5 466Z" fill="#277297" stroke="#277297"></path><path d="M269 776.4L265 726.1L209.5 777.4Z" fill="#19435d" stroke="#19435d"></path><path d="M222.5 702.1L265 726.1L267 657.9Z" fill="#00101c" stroke="#00101c"></path><path d="M265 726.1L351.5 731.1L267 657.9Z" fill="#081a28" stroke="#081a28"></path><path d="M418 120.6L358.5 170.9L399 180.9Z" fill="#246688" stroke="#246688"></path><path d="M418 120.6L340.5 125.6L358.5 170.9Z" fill="#0c2435" stroke="#0c2435"></path><path d="M618.5 362.7L612.5 320.4L563 342.4Z" fill="#205a7a" stroke="#205a7a"></path><path d="M561 191.9L478.5 234.1L545 259.1Z" fill="#205a7a" stroke="#205a7a"></path><path d="M561 191.9L494.5 171.9L478.5 234.1Z" fill="#15384f" stroke="#15384f"></path><path d="M477.5 668.9L513 696.1L534 633.9Z" fill="#0c2435" stroke="#0c2435"></path><path d="M427 694.1L451.5 711.1L477.5 668.9Z" fill="#1d4e6b" stroke="#1d4e6b"></path><path d="M427 770.4L451.5 711.1L427 694.1Z" fill="#15384f" stroke="#15384f"></path><path d="M216.5 67.3L225.5 132.6L270 135.6Z" fill="#081a28" stroke="#081a28"></path><path d="M270 135.6L225.5 132.6L283 195.9Z" fill="#205a7a" stroke="#205a7a"></path><path d="M161 197.9L66.5 198.9L148 266.1Z" fill="#00101c" stroke="#00101c"></path><path d="M534 633.9L589.5 601.6L533 569.6Z" fill="#246688" stroke="#246688"></path><path d="M624.5 637.9L589.5 601.6L534 633.9Z" fill="#00101c" stroke="#00101c"></path><path d="M269 776.4L363.5 749.4L351.5 731.1Z" fill="#081a28" stroke="#081a28"></path><path d="M351.5 731.1L363.5 749.4L427 694.1Z" fill="#15384f" stroke="#15384f"></path><path d="M494.5 171.9L418 120.6L399 180.9Z" fill="#0c2435" stroke="#0c2435"></path><path d="M340.5 125.6L347.5 73.3L270 135.6Z" fill="#1d4e6b" stroke="#1d4e6b"></path><path d="M0 389.7L0 461L89.5 425Z" fill="#00101c" stroke="#00101c"></path><path d="M61.5 538.3L0 562.6L65.5 574.6Z" fill="#205a7a" stroke="#205a7a"></path><path d="M0 389.7L89.5 425L42.5 359.7Z" fill="#1d4e6b" stroke="#1d4e6b"></path><path d="M0 389.7L42.5 359.7L0 316.4Z" fill="#1d4e6b" stroke="#1d4e6b"></path><path d="M0 316.4L42.5 359.7L55.5 314.4Z" fill="#00101c" stroke="#00101c"></path><path d="M491.5 776.4L513 696.1L451.5 711.1Z" fill="#297ea6" stroke="#297ea6"></path><path d="M451.5 711.1L513 696.1L477.5 668.9Z" fill="#277297" stroke="#277297"></path><path d="M0 461L0 498.3L61.5 538.3Z" fill="#112e42" stroke="#112e42"></path><path d="M65.5 574.6L81.5 667.9L117 642.9Z" fill="#081a28" stroke="#081a28"></path><path d="M631.5 248.1L561 191.9L545 259.1Z" fill="#081a28" stroke="#081a28"></path><path d="M494.5 171.9L489.5 126.6L418 120.6Z" fill="#112e42" stroke="#112e42"></path><path d="M117 642.9L81.5 689.1L159 681.1Z" fill="#1d4e6b" stroke="#1d4e6b"></path><path d="M209.5 777.4L265 726.1L222.5 702.1Z" fill="#246688" stroke="#246688"></path><path d="M0 665.9L81.5 667.9L65.5 574.6Z" fill="#0c2435" stroke="#0c2435"></path><path d="M0 273.1L0 316.4L55.5 314.4Z" fill="#15384f" stroke="#15384f"></path><path d="M0 273.1L55.5 314.4L69.5 268.1Z" fill="#19435d" stroke="#19435d"></path><path d="M552 105.6L489.5 126.6L494.5 171.9Z" fill="#297ea6" stroke="#297ea6"></path><path d="M146 121.6L66.5 198.9L161 197.9Z" fill="#205a7a" stroke="#205a7a"></path><path d="M0 498.3L0 562.6L61.5 538.3Z" fill="#205a7a" stroke="#205a7a"></path><path d="M209.5 777.4L222.5 702.1L159 681.1Z" fill="#205a7a" stroke="#205a7a"></path><path d="M265 726.1L269 776.4L351.5 731.1Z" fill="#297ea6" stroke="#297ea6"></path><path d="M450.5 88.3L399 85.3L418 120.6Z" fill="#112e42" stroke="#112e42"></path><path d="M418 120.6L399 85.3L340.5 125.6Z" fill="#081a28" stroke="#081a28"></path><path d="M675 529.3L675 459L604.5 519.3Z" fill="#1d4e6b" stroke="#1d4e6b"></path><path d="M604.5 519.3L675 459L584.5 466Z" fill="#19435d" stroke="#19435d"></path><path d="M618.5 362.7L675 297.4L612.5 320.4Z" fill="#205a7a" stroke="#205a7a"></path><path d="M612.5 320.4L631.5 248.1L545 259.1Z" fill="#15384f" stroke="#15384f"></path><path d="M675 459L675 382.7L618.5 362.7Z" fill="#19435d" stroke="#19435d"></path><path d="M0 665.9L81.5 689.1L81.5 667.9Z" fill="#00101c" stroke="#00101c"></path><path d="M81.5 667.9L81.5 689.1L117 642.9Z" fill="#19435d" stroke="#19435d"></path><path d="M216.5 67.3L146 121.6L225.5 132.6Z" fill="#277297" stroke="#277297"></path><path d="M225.5 132.6L146 121.6L161 197.9Z" fill="#15384f" stroke="#15384f"></path><path d="M363.5 749.4L427 770.4L427 694.1Z" fill="#0c2435" stroke="#0c2435"></path><path d="M380 842.7L427 770.4L363.5 749.4Z" fill="#15384f" stroke="#15384f"></path><path d="M399 85.3L347.5 73.3L340.5 125.6Z" fill="#277297" stroke="#277297"></path><path d="M675 297.4L631.5 248.1L612.5 320.4Z" fill="#112e42" stroke="#112e42"></path><path d="M561 191.9L552 105.6L494.5 171.9Z" fill="#15384f" stroke="#15384f"></path><path d="M66.5 198.9L0 273.1L69.5 268.1Z" fill="#0c2435" stroke="#0c2435"></path><path d="M521 67.3L450.5 88.3L489.5 126.6Z" fill="#246688" stroke="#246688"></path><path d="M489.5 126.6L450.5 88.3L418 120.6Z" fill="#277297" stroke="#277297"></path><path d="M395 0L353.5 0L347.5 73.3Z" fill="#205a7a" stroke="#205a7a"></path><path d="M675 593.6L604.5 519.3L589.5 601.6Z" fill="#081a28" stroke="#081a28"></path><path d="M675 593.6L675 529.3L604.5 519.3Z" fill="#00101c" stroke="#00101c"></path><path d="M630.5 712.1L624.5 637.9L534 633.9Z" fill="#277297" stroke="#277297"></path><path d="M630.5 712.1L534 633.9L513 696.1Z" fill="#19435d" stroke="#19435d"></path><path d="M125 792.4L209.5 777.4L159 681.1Z" fill="#246688" stroke="#246688"></path><path d="M631.5 248.1L610.5 188.9L561 191.9Z" fill="#081a28" stroke="#081a28"></path><path d="M675 382.7L675 297.4L618.5 362.7Z" fill="#00101c" stroke="#00101c"></path><path d="M631.5 248.1L675 211.9L610.5 188.9Z" fill="#1d4e6b" stroke="#1d4e6b"></path><path d="M266 54.3L216.5 67.3L270 135.6Z" fill="#081a28" stroke="#081a28"></path><path d="M347.5 73.3L266 54.3L270 135.6Z" fill="#205a7a" stroke="#205a7a"></path><path d="M353.5 0L266 54.3L347.5 73.3Z" fill="#112e42" stroke="#112e42"></path><path d="M480.5 819.7L491.5 776.4L427 770.4Z" fill="#19435d" stroke="#19435d"></path><path d="M427 770.4L491.5 776.4L451.5 711.1Z" fill="#246688" stroke="#246688"></path><path d="M327.5 821.7L363.5 749.4L269 776.4Z" fill="#112e42" stroke="#112e42"></path><path d="M675 658.9L675 593.6L624.5 637.9Z" fill="#277297" stroke="#277297"></path><path d="M624.5 637.9L675 593.6L589.5 601.6Z" fill="#15384f" stroke="#15384f"></path><path d="M675 297.4L675 261.1L631.5 248.1Z" fill="#081a28" stroke="#081a28"></path><path d="M276 839.7L327.5 821.7L269 776.4Z" fill="#0c2435" stroke="#0c2435"></path><path d="M607.5 104.6L552 105.6L561 191.9Z" fill="#277297" stroke="#277297"></path><path d="M395 0L347.5 73.3L399 85.3Z" fill="#112e42" stroke="#112e42"></path><path d="M607.5 104.6L561 191.9L610.5 188.9Z" fill="#1d4e6b" stroke="#1d4e6b"></path><path d="M146 121.6L64.5 128.6L66.5 198.9Z" fill="#112e42" stroke="#112e42"></path><path d="M66.5 198.9L0 192.9L0 273.1Z" fill="#19435d" stroke="#19435d"></path><path d="M87.5 64.3L64.5 128.6L146 121.6Z" fill="#246688" stroke="#246688"></path><path d="M0 152.6L0 192.9L66.5 198.9Z" fill="#112e42" stroke="#112e42"></path><path d="M0 562.6L0 665.9L65.5 574.6Z" fill="#081a28" stroke="#081a28"></path><path d="M81.5 689.1L125 792.4L159 681.1Z" fill="#081a28" stroke="#081a28"></path><path d="M552 105.6L521 67.3L489.5 126.6Z" fill="#00101c" stroke="#00101c"></path><path d="M675 261.1L675 211.9L631.5 248.1Z" fill="#205a7a" stroke="#205a7a"></path><path d="M552 105.6L623.5 83.3L521 67.3Z" fill="#112e42" stroke="#112e42"></path><path d="M214.5 853.7L276 839.7L209.5 777.4Z" fill="#00101c" stroke="#00101c"></path><path d="M209.5 777.4L276 839.7L269 776.4Z" fill="#1d4e6b" stroke="#1d4e6b"></path><path d="M480.5 819.7L537 783.4L491.5 776.4Z" fill="#081a28" stroke="#081a28"></path><path d="M380 842.7L363.5 749.4L327.5 821.7Z" fill="#19435d" stroke="#19435d"></path><path d="M491.5 776.4L537 783.4L513 696.1Z" fill="#205a7a" stroke="#205a7a"></path><path d="M65.5 791.4L125 792.4L81.5 689.1Z" fill="#246688" stroke="#246688"></path><path d="M537 783.4L630.5 712.1L513 696.1Z" fill="#1d4e6b" stroke="#1d4e6b"></path><path d="M310.5 900L380 842.7L327.5 821.7Z" fill="#00101c" stroke="#00101c"></path><path d="M630.5 712.1L675 658.9L624.5 637.9Z" fill="#081a28" stroke="#081a28"></path><path d="M380 842.7L480.5 819.7L427 770.4Z" fill="#297ea6" stroke="#297ea6"></path><path d="M0 65.3L0 152.6L64.5 128.6Z" fill="#0c2435" stroke="#0c2435"></path><path d="M64.5 128.6L0 152.6L66.5 198.9Z" fill="#246688" stroke="#246688"></path><path d="M395 0L399 85.3L450.5 0Z" fill="#19435d" stroke="#19435d"></path><path d="M266 54.3L274 0L216.5 67.3Z" fill="#297ea6" stroke="#297ea6"></path><path d="M216.5 67.3L113 49.3L146 121.6Z" fill="#0c2435" stroke="#0c2435"></path><path d="M675 115.6L607.5 104.6L610.5 188.9Z" fill="#081a28" stroke="#081a28"></path><path d="M353.5 0L274 0L266 54.3Z" fill="#112e42" stroke="#112e42"></path><path d="M178.5 0L113 49.3L216.5 67.3Z" fill="#277297" stroke="#277297"></path><path d="M113 49.3L87.5 64.3L146 121.6Z" fill="#00101c" stroke="#00101c"></path><path d="M450.5 0L399 85.3L450.5 88.3Z" fill="#19435d" stroke="#19435d"></path><path d="M450.5 0L450.5 88.3L521 67.3Z" fill="#19435d" stroke="#19435d"></path><path d="M0 665.9L0 720.1L81.5 689.1Z" fill="#15384f" stroke="#15384f"></path><path d="M143 836.7L214.5 853.7L209.5 777.4Z" fill="#112e42" stroke="#112e42"></path><path d="M276 839.7L310.5 900L327.5 821.7Z" fill="#112e42" stroke="#112e42"></path><path d="M143 836.7L209.5 777.4L125 792.4Z" fill="#1d4e6b" stroke="#1d4e6b"></path><path d="M0 720.1L65.5 791.4L81.5 689.1Z" fill="#00101c" stroke="#00101c"></path><path d="M76.5 855.7L143 836.7L125 792.4Z" fill="#19435d" stroke="#19435d"></path><path d="M541 0L450.5 0L521 67.3Z" fill="#15384f" stroke="#15384f"></path><path d="M630.5 712.1L675 715.1L675 658.9Z" fill="#15384f" stroke="#15384f"></path><path d="M675 781.4L675 715.1L630.5 712.1Z" fill="#246688" stroke="#246688"></path><path d="M610.5 797.4L630.5 712.1L537 783.4Z" fill="#0c2435" stroke="#0c2435"></path><path d="M274 0L178.5 0L216.5 67.3Z" fill="#297ea6" stroke="#297ea6"></path><path d="M69.5 0L0 65.3L87.5 64.3Z" fill="#112e42" stroke="#112e42"></path><path d="M675 115.6L623.5 83.3L607.5 104.6Z" fill="#081a28" stroke="#081a28"></path><path d="M607.5 104.6L623.5 83.3L552 105.6Z" fill="#15384f" stroke="#15384f"></path><path d="M0 720.1L0 757.4L65.5 791.4Z" fill="#112e42" stroke="#112e42"></path><path d="M116 900L197.5 900L143 836.7Z" fill="#1d4e6b" stroke="#1d4e6b"></path><path d="M178.5 0L151 0L113 49.3Z" fill="#1d4e6b" stroke="#1d4e6b"></path><path d="M87.5 64.3L0 65.3L64.5 128.6Z" fill="#081a28" stroke="#081a28"></path><path d="M467.5 900L538 842.7L480.5 819.7Z" fill="#297ea6" stroke="#297ea6"></path><path d="M480.5 819.7L538 842.7L537 783.4Z" fill="#00101c" stroke="#00101c"></path><path d="M412 900L480.5 819.7L380 842.7Z" fill="#205a7a" stroke="#205a7a"></path><path d="M538 842.7L610.5 797.4L537 783.4Z" fill="#112e42" stroke="#112e42"></path><path d="M675 211.9L675 115.6L610.5 188.9Z" fill="#205a7a" stroke="#205a7a"></path><path d="M282 900L276 839.7L214.5 853.7Z" fill="#1d4e6b" stroke="#1d4e6b"></path><path d="M282 900L310.5 900L276 839.7Z" fill="#081a28" stroke="#081a28"></path><path d="M197.5 900L282 900L214.5 853.7Z" fill="#0c2435" stroke="#0c2435"></path><path d="M310.5 900L412 900L380 842.7Z" fill="#15384f" stroke="#15384f"></path><path d="M593.5 0L521 67.3L623.5 83.3Z" fill="#15384f" stroke="#15384f"></path><path d="M593.5 0L541 0L521 67.3Z" fill="#297ea6" stroke="#297ea6"></path><path d="M69.5 0L87.5 64.3L113 49.3Z" fill="#00101c" stroke="#00101c"></path><path d="M76.5 855.7L125 792.4L65.5 791.4Z" fill="#112e42" stroke="#112e42"></path><path d="M143 836.7L197.5 900L214.5 853.7Z" fill="#081a28" stroke="#081a28"></path><path d="M412 900L467.5 900L480.5 819.7Z" fill="#15384f" stroke="#15384f"></path><path d="M538 842.7L631.5 814.7L610.5 797.4Z" fill="#19435d" stroke="#19435d"></path><path d="M0 844.7L76.5 855.7L65.5 791.4Z" fill="#15384f" stroke="#15384f"></path><path d="M597.5 900L631.5 814.7L538 842.7Z" fill="#0c2435" stroke="#0c2435"></path><path d="M610.5 797.4L675 781.4L630.5 712.1Z" fill="#246688" stroke="#246688"></path><path d="M675 115.6L675 77.3L623.5 83.3Z" fill="#112e42" stroke="#112e42"></path><path d="M631.5 814.7L675 781.4L610.5 797.4Z" fill="#112e42" stroke="#112e42"></path><path d="M151 0L69.5 0L113 49.3Z" fill="#0c2435" stroke="#0c2435"></path><path d="M675 0L593.5 0L623.5 83.3Z" fill="#15384f" stroke="#15384f"></path><path d="M76.5 855.7L116 900L143 836.7Z" fill="#00101c" stroke="#00101c"></path><path d="M675 900L675 809.7L631.5 814.7Z" fill="#112e42" stroke="#112e42"></path><path d="M631.5 814.7L675 809.7L675 781.4Z" fill="#15384f" stroke="#15384f"></path><path d="M467.5 900L559 900L538 842.7Z" fill="#1d4e6b" stroke="#1d4e6b"></path><path d="M0 757.4L0 844.7L65.5 791.4Z" fill="#15384f" stroke="#15384f"></path><path d="M76.5 855.7L60.5 900L116 900Z" fill="#297ea6" stroke="#297ea6"></path><path d="M69.5 0L0 0L0 65.3Z" fill="#19435d" stroke="#19435d"></path><path d="M0 844.7L60.5 900L76.5 855.7Z" fill="#112e42" stroke="#112e42"></path><path d="M559 900L597.5 900L538 842.7Z" fill="#0c2435" stroke="#0c2435"></path><path d="M675 77.3L675 0L623.5 83.3Z" fill="#246688" stroke="#246688"></path><path d="M0 844.7L0 900L60.5 900Z" fill="#081a28" stroke="#081a28"></path><path d="M597.5 900L675 900L631.5 814.7Z" fill="#297ea6" stroke="#297ea6"></path></g></svg>