<svg id="visual" viewBox="0 0 900 600" width="900" height="600" xmlns="http://www.w3.org/2000/svg" xmlns:xlink="http://www.w3.org/1999/xlink" version="1.1"><rect x="0" y="0" width="900" height="600" fill="#fff"></rect><defs><linearGradient id="grad1_0" x1="33.3%" y1="0%" x2="100%" y2="100%"><stop offset="20%" stop-color="#ffffff" stop-opacity="1"></stop><stop offset="80%" stop-color="#ffffff" stop-opacity="1"></stop></linearGradient></defs><defs><linearGradient id="grad2_0" x1="0%" y1="0%" x2="66.7%" y2="100%"><stop offset="20%" stop-color="#ffffff" stop-opacity="1"></stop><stop offset="80%" stop-color="#ffffff" stop-opacity="1"></stop></linearGradient></defs><g transform="translate(900, 0)"><path d="M0 405.6C-55.7 395 -111.5 384.3 -145.8 352C-180.1 319.7 -193 265.6 -233.3 233.3C-273.7 201.1 -341.5 190.5 -374.7 155.2C-408 120 -406.8 60 -405.6 0L0 0Z" fill="#99B6F5"></path></g><g transform="translate(0, 600)"><path d="M0 -405.6C55 -402.9 110 -400.2 155.2 -374.7C200.5 -349.3 235.9 -301 255.3 -255.3C274.6 -209.6 277.9 -166.5 300.3 -124.4C322.6 -82.3 364.1 -41.1 405.6 0L0 0Z" fill="#99B6F5"></path></g></svg>