<svg id="visual" viewBox="0 0 900 600" width="900" height="600" xmlns="http://www.w3.org/2000/svg" xmlns:xlink="http://www.w3.org/1999/xlink" version="1.1">
    <rect x="0" y="0" width="900" height="600" fill="#fff"></rect>
    <!-- New blob starting from the top left, continuing the pattern -->
    <g transform="translate(0, 0)">
      <path d="M0 405.6C55.7 395 111.5 384.3 145.8 352C180.1 319.7 193 265.6 233.3 233.3C273.7 201.1 341.5 190.5 334.7 155.2C307.9 120 306.7 60 302 0L0 0Z" fill="#99B6F5"></path>
    </g>

    <!-- Second blob at the bottom right -->
    <g transform="translate(900, 600) rotate(180)">
        <path d="M0 405.6C55.7 395 111.5 384.3 145.8 352C180.1 319.7 193 265.6 233.3 233.3C273.7 201.1 341.5 190.5 374.7 155.2C408 120 406.8 60 405.6 0L0 0Z" fill="#99B6F5"></path>
    </g>
</svg>
